#!OML:ASF H:\GeneralSubjects\Female5\Project 1\Capture day 1\Session 1\Female5.ASF
:FULLY-SPECIFIED
:DEGREES
530
root 32.4895 15.1957 8.3897 37.6279 115.153 24.7822
lowerback 8.59637 0.351296 -3.55404
upperback -7.01515 1.3824 8.45617
thorax -12.9714 1.73251 11.3002
lowerneck -6.70552 0.0806787 -1.5096
upperneck 47.4817 11.6496 -9.5017
head 20.9971 4.9454 -1.85574
rclavicle 1.79403e-014 3.49861e-014
rhumerus -40.4391 41.428 -82.3654
rradius 48.5867
rwrist -10.8147
rhand -24.8001 -20.704
rfingers 7.12502
rthumb 1.70467 -50.677
lclavicle 1.79403e-014 3.49861e-014
lhumerus -57.1615 20.1849 67.9661
lradius 34.5632
lwrist -19.5269
lhand -28.3097 28.2323
lfingers 7.12502
lthumb -1.685 58.2054
rfemur 4.28341 7.77616 47.1037
rtibia 0.144774
rfoot -22.1906 -13.9048
rtoes -23.5939
lfemur -39.6717 -25.7578 -4.00213
ltibia 4.46193
lfoot -58.5116 14.4176
ltoes -35.7886
531
root 32.7058 15.1931 8.3187 37.046 115.259 23.8707
lowerback 8.59709 0.299207 -4.31693
upperback -7.10063 1.16714 8.30447
thorax -13.0435 1.6918 11.6333
lowerneck -6.73999 0.250999 -1.42854
upperneck 47.4619 11.9195 -9.46775
head 21.0238 5.06615 -1.80034
rclavicle 1.77415e-014 1.03368e-014
rhumerus -41.2893 41.8187 -83.1306
rradius 48.2239
rwrist -10.7533
rhand -24.5533 -20.7159
rfingers 7.12502
rthumb 1.94303 -50.6868
lclavicle 1.77415e-014 1.03368e-014
lhumerus -57.4475 20.469 67.8673
lradius 34.8479
lwrist -19.3208
lhand -28.3098 28.2979
lfingers 7.12502
lthumb -1.68511 58.271
rfemur 4.3813 7.35413 46.8057
rtibia 1.05347
rfoot -22.4692 -13.4647
rtoes -24.048
lfemur -39.3332 -24.2634 -5.66996
ltibia 5.32373
lfoot -56.2152 14.4378
ltoes -33.6686
532
root 32.9194 15.2022 8.24902 36.1042 115.397 22.511
lowerback 8.66477 0.227588 -5.23605
upperback -7.20296 0.892092 8.11415
thorax -13.1634 1.63811 12.0324
lowerneck -6.75307 0.419202 -1.3801
upperneck 47.4376 12.1901 -9.42239
head 21.0366 5.18359 -1.733
rclavicle -2.62396e-014 7.15625e-014
rhumerus -42.1555 42.2306 -83.8481
rradius 47.9211
rwrist -10.6054
rhand -24.2035 -20.7281
rfingers 7.12502
rthumb 2.28084 -50.6956
lclavicle -2.62396e-014 7.15625e-014
lhumerus -57.6819 20.7802 67.7914
lradius 35.1088
lwrist -19.0623
lhand -28.3417 28.625
lfingers 7.12502
lthumb -1.71593 58.5978
rfemur 4.35988 6.78248 46.2873
rtibia 1.97018
rfoot -22.4762 -13.0779
rtoes -24.6287
lfemur -39.1744 -22.7354 -7.54973
ltibia 6.39502
lfoot -53.4226 14.683
ltoes -31.6142
533
root 33.1293 15.2226 8.18041 35.0707 115.626 20.9971
lowerback 8.78524 0.141793 -6.17118
upperback -7.31379 0.592111 7.92636
thorax -13.3166 1.57951 12.4539
lowerneck -6.75261 0.574286 -1.39046
upperneck 47.425 12.4488 -9.34888
head 21.0445 5.28987 -1.64281
rclavicle 4.46272e-014 -1.66979e-014
rhumerus -43.0111 42.6548 -84.4882
rradius 47.6691
rwrist -10.4293
rhand -23.814 -20.7101
rfingers 7.12502
rthumb 2.65698 -50.6733
lclavicle 4.46272e-014 -1.66979e-014
lhumerus -57.8408 21.1182 67.7688
lradius 35.3428
lwrist -18.7457
lhand -28.4146 29.0173
lfingers 7.12502
lthumb -1.78637 58.9895
rfemur 4.1506 5.85638 45.6318
rtibia 2.99474
rfoot -22.0472 -12.5411
rtoes -25.4029
lfemur -39.1681 -21.4322 -9.3236
ltibia 7.52351
lfoot -50.6209 15.0185
ltoes -29.6862
534
root 33.335 15.2532 8.11229 34.2151 115.978 19.6318
lowerback 8.93704 0.0495909 -6.99236
upperback -7.4223 0.305237 7.78323
thorax -13.4838 1.5249 12.8598
lowerneck -6.73892 0.704357 -1.46074
upperneck 47.424 12.6912 -9.27288
head 21.051 5.38112 -1.54376
rclavicle -1.3418e-014 -5.56597e-014
rhumerus -43.8157 43.0779 -85.0145
rradius 47.4485
rwrist -10.2761
rhand -23.4447 -20.6432
rfingers 7.12502
rthumb 3.01369 -50.6017
lclavicle -1.3418e-014 -5.56597e-014
lhumerus -57.8996 21.4093 67.9019
lradius 35.5798
lwrist -18.3135
lhand -28.4106 29.5828
lfingers 7.12502
lthumb -1.78249 59.5551
rfemur 3.71585 4.47492 44.9422
rtibia 4.21535
rfoot -21.0262 -11.8248
rtoes -26.9019
lfemur -39.2289 -20.5425 -10.7247
ltibia 8.51782
lfoot -48.2862 15.2036
ltoes -27.9102
535
root 33.5366 15.2921 8.04393 33.7276 116.447 18.6396
lowerback 9.09475 -0.0375389 -7.61207
upperback -7.51498 0.0675639 7.71414
thorax -13.6425 1.48316 13.2228
lowerneck -6.69839 0.798716 -1.55414
upperneck 47.4056 12.9181 -9.26981
head 21.0456 5.45817 -1.48138
rclavicle -2.23136e-014 1.51076e-014
rhumerus -44.5336 43.501 -85.4039
rradius 47.2399
rwrist -10.1993
rhand -23.172 -20.5383
rfingers 7.12502
rthumb 3.27697 -50.4929
lclavicle -2.23136e-014 1.51076e-014
lhumerus -57.8372 21.6267 68.2431
lradius 35.812
lwrist -17.7867
lhand -28.3742 30.1472
lfingers 7.12502
lthumb -1.74731 60.1198
rfemur 3.0444 2.63998 44.3065
rtibia 5.72123
rfoot -19.404 -10.8304
rtoes -28.9169
lfemur -39.2612 -20.0839 -11.6306
ltibia 9.24609
lfoot -46.6732 14.9959
ltoes -26.1208
536
root 33.7341 15.3369 7.97459 33.6872 116.994 18.1286
lowerback 9.23368 -0.109645 -7.99489
upperback -7.57947 -0.0974774 7.7275
thorax -13.7702 1.45913 13.5241
lowerneck -6.6423 0.862114 -1.60557
upperneck 47.3622 13.1462 -9.39224
head 21.0428 5.53381 -1.49094
rclavicle 1.32689e-014 -5.56597e-015
rhumerus -45.1401 43.9257 -85.6536
rradius 47.0385
rwrist -10.2516
rhand -23.0586 -20.4277
rfingers 7.12502
rthumb 3.38649 -50.3805
lclavicle 1.32689e-014 -5.56597e-015
lhumerus -57.6735 21.7675 68.7887
lradius 36.0522
lwrist -17.206
lhand -28.3357 30.4422
lfingers 7.12502
lthumb -1.71018 60.4151
rfemur 2.14713 0.461531 43.7804
rtibia 7.57918
rfoot -17.1546 -9.55953
rtoes -31.4948
lfemur -39.2014 -19.9428 -12.0478
ltibia 9.67647
lfoot -45.6859 14.6376
ltoes -24.585
537
root 33.9272 15.3851 7.90512 33.8986 117.549 17.9281
lowerback 9.37465 -0.159157 -8.24803
upperback -7.60584 -0.20311 7.79515
thorax -13.8681 1.45231 13.7987
lowerneck -6.58183 0.90353 -1.55228
upperneck 47.2897 13.3858 -9.66744
head 21.0551 5.61994 -1.59555
rclavicle 4.96465e-014 -2.8625e-014
rhumerus -45.6034 44.3221 -85.7543
rradius 46.8487
rwrist -10.4417
rhand -23.0875 -20.3322
rfingers 7.12502
rthumb 3.35855 -50.2855
lclavicle 4.96465e-014 -2.8625e-014
lhumerus -57.4478 21.8442 69.4896
lradius 36.3063
lwrist -16.6405
lhand -28.3179 30.3389
lfingers 7.12502
lthumb -1.69293 60.3119
rfemur 1.07995 -1.86709 43.3104
rtibia 9.79348
rfoot -14.347 -8.19778
rtoes -34.5562
lfemur -38.9921 -20.0284 -12.1397
ltibia 9.83104
lfoot -45.1653 14.1809
ltoes -23.4267
538
root 34.1162 15.4352 7.8352 34.2533 118.066 17.9406
lowerback 9.51442 -0.186669 -8.42321
upperback -7.59201 -0.262725 7.8926
thorax -13.9289 1.45732 14.0506
lowerneck -6.50624 0.934157 -1.38945
upperneck 47.1829 13.6239 -10.0547
head 21.0674 5.71604 -1.77832
rclavicle -4.22914e-014 3.02153e-014
rhumerus -45.8877 44.6389 -85.7005
rradius 46.6706
rwrist -10.7473
rhand -23.2093 -20.2663
rfingers 7.12502
rthumb 3.24097 -50.2214
lclavicle -4.22914e-014 3.02153e-014
lhumerus -57.2006 21.9273 70.2179
lradius 36.5311
lwrist -16.2309
lhand -28.3472 29.9003
lfingers 7.12502
lthumb -1.72126 59.8731
rfemur -0.103059 -4.14313 42.8674
rtibia 12.3128
rfoot -11.0762 -6.91034
rtoes -37.7767
lfemur -38.6103 -20.2697 -12.0193
ltibia 9.74355
lfoot -44.9224 13.8089
ltoes -22.6482
539
root 34.3011 15.4855 7.76519 34.6181 118.516 18.0315
lowerback 9.65771 -0.198779 -8.58346
upperback -7.54815 -0.301039 7.99149
thorax -13.9617 1.46656 14.2895
lowerneck -6.86735 0.954783 -0.856484
upperneck 47.1789 13.926 -10.6247
head 21.4283 5.85401 -2.06936
rclavicle -2.42517e-014 5.56597e-014
rhumerus -45.9956 44.8466 -85.5157
rradius 46.5064
rwrist -11.148
rhand -23.3762 -20.2421
rfingers 7.12502
rthumb 3.07982 -50.1996
lclavicle -2.42517e-014 5.56597e-014
lhumerus -56.9906 21.9875 70.921
lradius 36.7596
lwrist -15.9704
lhand -28.3924 29.3284
lfingers 7.12502
lthumb -1.7649 59.3008
rfemur -1.35231 -6.13914 42.4046
rtibia 15.027
rfoot -7.53914 -5.76126
rtoes -40.7852
lfemur -38.0575 -20.6169 -11.8197
ltibia 9.47318
lfoot -44.8075 13.6382
ltoes -22.2419
540
root 34.4816 15.5342 7.69572 34.8861 118.891 18.0864
lowerback 9.8139 -0.203325 -8.77724
upperback -7.48289 -0.340413 8.0768
thorax -13.9764 1.47382 14.5328
lowerneck -6.75343 0.990774 -0.52632
upperneck 47.0405 14.1509 -11.0912
head 21.4429 5.97236 -2.33318
rclavicle 3.74709e-014 1.98785e-014
rhumerus -45.9324 44.9344 -85.2083
rradius 46.3588
rwrist -11.6174
rhand -23.5511 -20.2494
rfingers 7.12502
rthumb 2.91089 -50.2093
lclavicle 3.74709e-014 1.98785e-014
lhumerus -56.8359 22.0325 71.5521
lradius 36.9946
lwrist -15.857
lhand -28.3128 28.9638
lfingers 7.12502
lthumb -1.68798 58.9369
rfemur -2.63736 -7.77544 41.8827
rtibia 17.8157
rfoot -4.00976 -4.78792
rtoes -43.3174
lfemur -37.3527 -21.0382 -11.6551
ltibia 9.0871
lfoot -44.7354 13.6669
ltoes -22.2384
